<svg width="912" height="3135" viewBox="0 0 912 3135" fill="none" xmlns="http://www.w3.org/2000/svg">
<path d="M784.495 2875.73C784.495 2880.29 780.24 2886.58 771.73 2894.6C763.343 2902.49 742.747 2919.88 709.94 2946.77C708.337 2948 705.5 2951.95 701.43 2958.61C697.483 2965.27 695.51 2969.46 695.51 2971.19L695.88 2972.11C696.373 2972.61 696.867 2972.85 697.36 2972.85C701.553 2972.85 708.398 2968.17 717.895 2958.79L720.3 2957.68V2958.05C720.3 2959.29 716.107 2963.17 707.72 2969.71C701.307 2974.64 695.757 2977.11 691.07 2977.11C687.247 2977.11 685.335 2975.69 685.335 2972.85C685.335 2969.15 688.727 2962.68 695.51 2953.43H695.325C689.898 2958.49 686.815 2961.01 686.075 2961.01C685.952 2960.89 685.89 2960.83 685.89 2960.83C686.013 2959.84 688.048 2957.68 691.995 2954.35C694.462 2952.26 696.928 2950.16 699.395 2948.06C701.492 2945.35 704.698 2941.28 709.015 2935.85C744.042 2892.44 767.29 2870.73 778.76 2870.73C782.583 2870.73 784.495 2872.4 784.495 2875.73ZM779.87 2876.28C779.87 2873.94 778.822 2872.77 776.725 2872.77C772.162 2872.77 761 2883.19 743.24 2904.03C730.29 2919.08 720.177 2931.72 712.9 2941.96V2942.14C725.603 2931.29 738.307 2920.38 751.01 2909.4C770.25 2892.13 779.87 2881.09 779.87 2876.28ZM761.369 2921.79C761.369 2923.52 760.135 2925.25 757.669 2926.97C755.325 2928.7 753.229 2929.56 751.379 2929.56C750.885 2929.07 750.639 2927.96 750.639 2926.23C750.639 2921.92 753.352 2919.76 758.779 2919.76C760.505 2919.76 761.369 2920.44 761.369 2921.79ZM750.454 2957.87C750.454 2959.23 746.26 2963.17 737.874 2969.71C731.337 2974.77 725.972 2977.3 721.779 2977.3C718.079 2977.3 716.229 2975.88 716.229 2973.04C716.229 2970.2 718.387 2966.01 722.704 2960.46C726.28 2955.77 729.672 2952.13 732.879 2949.54V2949.36C730.905 2950.72 727.945 2952.94 723.999 2956.02C722.519 2957.38 720.299 2959.29 717.339 2961.75C716.599 2962.25 715.982 2962.49 715.489 2962.49L715.304 2962.12C716.537 2959.29 720.545 2955.71 727.329 2951.39C734.112 2946.95 739.23 2944.73 742.684 2944.73C743.547 2944.73 744.287 2944.86 744.904 2945.1V2945.47C744.904 2945.72 741.759 2949.67 735.469 2957.31C729.179 2964.84 726.034 2969.59 726.034 2971.56C726.157 2971.93 726.342 2972.3 726.589 2972.67C726.835 2973.04 727.205 2973.22 727.699 2973.22C729.795 2973.22 733.68 2970.76 739.354 2965.82C745.15 2960.77 748.85 2958.05 750.454 2957.68V2957.87ZM804.868 2957.68C800.305 2964.34 794.878 2967.67 788.588 2967.67C785.258 2967.67 783.346 2966.5 782.853 2964.16C767.436 2973.16 756.83 2977.67 751.033 2977.67C749.183 2977.67 748.258 2976.8 748.258 2975.07C748.258 2974.33 751.218 2970.45 757.138 2963.42C763.181 2956.27 766.265 2951.64 766.388 2949.54L765.833 2948.62L764.723 2948.25C760.776 2949.85 754.98 2954.23 747.333 2961.38C746.47 2962.25 745.853 2962.68 745.483 2962.68C744.99 2962.68 744.743 2962.43 744.743 2961.94C744.743 2960.71 748.135 2957.5 754.918 2952.32C761.825 2947.02 766.758 2944.36 769.718 2944.36C773.171 2944.36 774.898 2946.09 774.898 2949.54C774.898 2955.83 769.225 2963.97 757.878 2973.96V2974.15C760.961 2973.29 765.278 2971.5 770.828 2968.78C776.501 2965.95 780.448 2963.6 782.668 2961.75C783.161 2958.55 784.58 2954.97 786.923 2951.02C789.76 2946.58 792.535 2944.36 795.248 2944.36C796.728 2944.36 797.468 2945.23 797.468 2946.95C797.468 2949.54 795.865 2952.57 792.658 2956.02C790.191 2958.86 787.478 2961.2 784.518 2963.05C784.765 2965.02 786.245 2966.01 788.958 2966.01C791.795 2966.01 795.063 2964.59 798.763 2961.75C802.463 2958.92 804.436 2957.5 804.683 2957.5C804.806 2957.5 804.868 2957.56 804.868 2957.68ZM844.259 2957.87C844.259 2958.24 843.704 2958.98 842.594 2960.09C838.03 2964.78 832.974 2968.72 827.424 2971.93C820.887 2975.75 814.844 2977.67 809.294 2977.67C802.51 2977.67 799.119 2975.38 799.119 2970.82C799.119 2967.49 800.599 2963.85 803.559 2959.9H803.374C801.647 2961.75 800.475 2962.68 799.859 2962.68C799.735 2962.68 799.612 2962.62 799.489 2962.49V2962.12C799.489 2962.12 799.55 2961.88 799.674 2961.38C803.127 2957.56 808.184 2953.8 814.844 2950.1C821.997 2946.28 827.855 2944.36 832.419 2944.36C835.995 2944.36 837.784 2945.97 837.784 2949.17C837.784 2954.72 828.472 2960.46 809.849 2966.38C809.109 2968.85 808.739 2970.51 808.739 2971.37C808.739 2973.59 810.157 2974.7 812.994 2974.7C816.817 2974.7 821.319 2973.22 826.499 2970.26C830.075 2968.17 833.96 2965.39 838.154 2961.94C841.73 2958.86 843.58 2957.31 843.704 2957.31C844.074 2957.31 844.259 2957.5 844.259 2957.87ZM831.309 2948.43C831.309 2947.32 830.569 2946.77 829.089 2946.77C826.622 2946.77 823.23 2949.11 818.914 2953.8C815.584 2957.38 812.932 2960.89 810.959 2964.34V2964.53C824.525 2960.21 831.309 2954.85 831.309 2948.43Z" fill="#1E1E1E"/>
<path d="M719 2887.5C719 2904.17 661.5 2958.33 546.5 3050C463.167 3116.67 391.5 3150 331.5 3150C283.167 3150 259 3130 259 3090C259 3060 270.667 3032.5 294 3007.5H291.5C186.5 3102.5 92.3333 3150 9 3150C-54.3333 3150 -86 3122.5 -86 3067.5C-86 3019.17 -62.6667 2968.33 -16 2915H-18.5C-43.5 2941.67 -59.3333 2955 -66 2955C-69.3333 2955 -71.8333 2954.17 -73.5 2952.5V2947.5C-73.5 2947.5 -72.6667 2944.17 -71 2937.5C-29.3333 2887.5 39.8333 2836.67 136.5 2785C234.833 2731.67 313.167 2705 371.5 2705C429.833 2705 459 2726.67 459 2770C459 2780 457.333 2790.83 454 2802.5H456.5C513.167 2739.17 564.833 2707.5 611.5 2707.5C633.167 2707.5 644 2710 644 2715C644 2720 601.5 2774.17 516.5 2877.5C431.5 2979.17 389 3046.67 389 3080L394 3092.5C399 3094.17 404.833 3095 411.5 3095C446.5 3095 504 3060.83 584 2992.5C665.667 2922.5 709.833 2886.67 716.5 2885C718.167 2886.67 719 2887.5 719 2887.5ZM436.5 2777.5C436.5 2747.5 420.667 2732.5 389 2732.5C345.667 2732.5 273.167 2780.83 171.5 2877.5C71.5 2974.17 21.5 3042.5 21.5 3082.5C21.5 3102.5 32.3333 3112.5 54 3112.5C102.333 3112.5 178.167 3067.5 281.5 2977.5C384.833 2887.5 436.5 2820.83 436.5 2777.5Z" fill="#1E1E1E"/>
</svg>
